<?xml version="1.0" encoding="utf-8"?>
<!-- Generator: Adobe Illustrator 16.0.0, SVG Export Plug-In . SVG Version: 6.00 Build 0)  -->
<!DOCTYPE svg PUBLIC "-//W3C//DTD SVG 1.1//EN" "http://www.w3.org/Graphics/SVG/1.1/DTD/svg11.dtd">
<svg version="1.1" id="Layer_1" xmlns="http://www.w3.org/2000/svg" xmlns:xlink="http://www.w3.org/1999/xlink" x="0px" y="0px"
	 width="103px" height="38px" viewBox="0 0 103 38" enable-background="new 0 0 103 38" xml:space="preserve">
<g>
	<path fill="#0A1753" d="M93.575,9.46h-5.027l-4.386,13.265L79.669,9.46h-4.991l7.096,18.685l0,0
		c-0.785,2.104-1.891,2.674-4.244,2.531v4.279c3.852,0.25,6.666-0.394,8.451-5.17L93.575,9.46L93.575,9.46z M45.69,18.695
		c0,2.853-2.104,5.17-4.707,5.17c-2.603,0-4.707-2.246-4.707-5.17c0-3.031,2.104-5.277,4.707-5.277
		C43.586,13.418,45.69,15.771,45.69,18.695L45.69,18.695z M45.69,4.43v6.777c-1.426-1.461-3.209-2.139-5.384-2.139
		c-4.813,0-8.771,4.314-8.771,9.592c0,5.312,3.887,9.592,9.449,9.592c5.526,0,9.413-4.279,9.413-9.592V4.43H45.69L45.69,4.43z
		 M67.205,18.695c0,2.853-2.104,5.17-4.707,5.17c-2.603,0-4.707-2.246-4.707-5.17c0-3.031,2.104-5.277,4.707-5.277
		C65.102,13.418,67.205,15.771,67.205,18.695L67.205,18.695z M67.205,4.43v6.777c-1.426-1.461-3.209-2.139-5.385-2.139
		c-4.813,0-8.771,4.314-8.771,9.592c0,5.312,3.887,9.592,9.449,9.592c5.527,0,9.414-4.279,9.414-9.592V4.43H67.205L67.205,4.43z"/>
	<path fill-rule="evenodd" clip-rule="evenodd" fill="#0A1753" d="M18.335,18.018c-0.594,0.594-1.556,0.594-2.15,0
		c-0.257-0.258-0.403-0.584-0.438-0.92c-0.214,0.464-0.334,0.98-0.334,1.526c0,0.769,0.238,1.481,0.644,2.068
		c0.657,0.95,1.755,1.574,2.999,1.574c1.243,0,2.341-0.624,2.998-1.574h0.26h1.831h4.317c0.146-0.667,0.223-1.358,0.223-2.068
		c0-5.319-4.312-9.63-9.63-9.63c-5.319,0-9.63,4.312-9.63,9.63c0,5.318,4.312,9.63,9.63,9.63c3.903,0,7.264-2.321,8.776-5.659
		h-4.981c-0.986,0.942-2.323,1.522-3.795,1.522c-2.302,0-4.273-1.416-5.09-3.425c-0.26-0.638-0.403-1.337-0.403-2.068
		s0.143-1.431,0.403-2.069c0.817-2.008,2.788-3.424,5.09-3.424s4.272,1.416,5.089,3.424h-2.091c-0.657-0.95-1.755-1.573-2.998-1.573
		c-0.631,0-1.224,0.16-1.741,0.442c0.371,0.013,0.738,0.161,1.021,0.444C18.929,16.461,18.929,17.424,18.335,18.018L18.335,18.018z"
		/>
	<path fill-rule="evenodd" clip-rule="evenodd" fill="#2FA88A" d="M11.754,9.465L11.754,9.465L11.754,9.465l0.003-0.001l0.002-0.001
		l0.002-0.001l0,0l0.002-0.001l0.012-0.007l0.002-0.001l0.002-0.001l0,0l0.004-0.003l0.002-0.001l0.002-0.001l0.002-0.001
		l0.007-0.004l0.002-0.001l0,0l0.003-0.002h0l0.002-0.002l0.002-0.001l0.011-0.008l0.002-0.001l0,0l0.001-0.001l0.002-0.002
		l0.002-0.001l0.006-0.005l0.002-0.001l0.002-0.001l0.002-0.002l0.001,0l0.001-0.001l0.002-0.001L11.85,9.4l0.013-0.01l0.001-0.001
		l0.001-0.001l0.002-0.001l0.011-0.009l0.002-0.001l0.002-0.002l0.001-0.001l0,0l0.002-0.002l0.011-0.009l0.186-0.133
		c1.947-1.448,4.36-2.304,6.973-2.304c2.613,0,5.026,0.856,6.973,2.304l0.186,0.133l0.01,0.009l0.002,0.002l0,0l0.002,0.001
		l0.002,0.002l0.002,0.001l0.011,0.009l0.002,0.001l0.001,0.001l0.001,0.001l0.013,0.01l0.002,0.002l0.002,0.001l0.001,0.001
		l0.001,0l0.002,0.002l0.002,0.001l0.002,0.001l0.007,0.005l0.002,0.001l0.002,0.002l0.001,0.001l0,0l0.002,0.001l0.011,0.008
		l0.002,0.001l0.002,0.002h0l0.003,0.002l0,0l0.002,0.001l0.007,0.004l0.002,0.001l0.002,0.001l0.002,0.001l0.005,0.003l0,0
		l0.002,0.001l0.002,0.001l0.012,0.007L26.35,9.46v0l0.002,0.001l0.002,0.001l0.002,0.001h0l0,0l0.013,0.008l0.002,0.001l0,0
		l0.002,0.001l0.018,0.01l0.002,0.001h0l0.001,0.001l0.02,0.01l0.001,0.001l0.001,0l0.021,0.01l0.001,0l0.001,0l0.018,0.008
		l0.007,0.003l0.014,0.006l0.006,0.003l0.002,0l0.001,0.001l0.014,0.005l0.006,0.002L26.51,9.54l0.02,0.007l0.001,0.001l0.003,0.001
		l0.008,0.003l0.008,0.003l0.005,0.001l0.003,0.001l0.021,0.007l0,0l0.004,0.001l0.02,0.005l0.001,0l0.004,0.001l0.017,0.005
		l0.004,0.001l0.005,0.001c0.022,0.006,0.045,0.011,0.068,0.015l0.003,0l0,0l0.023,0.004h0.002l0.001,0l0.022,0.003h0l0.002,0h0.003
		l0.021,0.003h0.002h0l0.024,0.002l0.001,0l0.023,0.001l0.008,0l0.022,0h0l0.026,0l0.026,0h0.001h0.001l0.021,0l0.002,0h0.002h0
		h0.002h0.002l0.019-0.001h0.002h0l0.002,0l0.023-0.002h0.001h0.001l0.002,0l0.021-0.002h0.002l0,0l0.002,0h0l0.013-0.002l0.005,0
		l0.012-0.002l0.012-0.002l0.013-0.002l0.013-0.002l0.009-0.002l0.019-0.004l0.005-0.001l0.017-0.004l0.009-0.002l0.002,0
		l0.02-0.005l0.002,0l0.022-0.007l0,0l0.022-0.007l0.002,0l0.008-0.002l0.015-0.005l0.008-0.003l0.015-0.006l0.008-0.003
		l0.014-0.005l0.011-0.005l0.01-0.004l0.012-0.005l0.011-0.005l0.009-0.004L27.356,9.5l0.009-0.004l0.012-0.006l0.01-0.005
		l0.002-0.001l0.017-0.01l0.003-0.001l0.019-0.011l0.001,0l0.02-0.012L27.46,9.44l0.007-0.005l0.003-0.002l0.006-0.004l0.013-0.009
		l0.007-0.004l0.012-0.009l0.01-0.007l0.009-0.007l0.008-0.006l0.012-0.01l0.006-0.005l0.012-0.01l0.008-0.007l0.008-0.007
		l0.009-0.008l0.008-0.007l0.01-0.009l0-0.001l0.015-0.015l0.001-0.001l0.016-0.017l0.009-0.01l0.006-0.006l0.001-0.002l0.004-0.004
		l0.011-0.013l0.006-0.007l0.009-0.011l0.007-0.009l0.007-0.009l0.007-0.01l0.007-0.01l0.007-0.009l0.008-0.012l0.005-0.008
		l0.008-0.011l0.006-0.009l0.006-0.009l0.008-0.012v0l0.011-0.017l0.011-0.019l0.001-0.003l0,0l0.011-0.02l0-0.001l0.003-0.005
		l0.008-0.016l0.002-0.005l0.009-0.017l0.002-0.006l0.007-0.015l0.005-0.012l0.003-0.009L27.85,8.97l0.004-0.01l0.005-0.013
		l0.003-0.009l0.004-0.012l0.004-0.013l0.004-0.01l0.004-0.014l0.003-0.008l0.001-0.003l0.006-0.021V8.855l0.006-0.022V8.832
		l0-0.001l0.006-0.024v0l0.005-0.024l0-0.004l0.004-0.02l0.001-0.008l0.003-0.017l0.001-0.007l0.002-0.017l0.001-0.011l0.001-0.015
		l0.001-0.01l0.001-0.017l0-0.008l0.001-0.014l0.001-0.012V8.621l0.001-0.022V8.596V8.572V8.547V8.545l0-0.001l0-0.022V8.518
		l0-0.002c-0.001-0.017-0.002-0.033-0.004-0.049V8.465l0-0.004l-0.002-0.02l0-0.002V8.437l-0.003-0.023V8.413l-0.004-0.023V8.388
		l0,0c-0.003-0.017-0.006-0.034-0.01-0.05l0-0.002c-0.005-0.024-0.012-0.049-0.02-0.073v0l0-0.001
		c-0.002-0.007-0.005-0.015-0.007-0.022v0l0-0.001l-0.007-0.021l-0.001-0.002l0-0.002l-0.007-0.018l-0.001-0.004l-0.001-0.002
		l-0.008-0.021l0-0.001l-0.002-0.005l-0.007-0.015l-0.001-0.003l-0.001-0.003c-0.006-0.014-0.013-0.028-0.021-0.042l0,0
		l-0.011-0.021l-0.001-0.001v0l-0.012-0.021L27.79,8.053c-0.008-0.014-0.016-0.027-0.024-0.04l-0.001-0.001l-0.002-0.004
		l-0.01-0.016l-0.001-0.001L27.75,7.988L27.736,7.97V7.969l-0.014-0.019L27.722,7.95l0,0l-0.013-0.018L27.707,7.93l0,0
		c-0.01-0.013-0.02-0.025-0.03-0.037l-0.001-0.001l-0.003-0.004l-0.007-0.009h0c-0.083-0.092-0.181-0.169-0.292-0.228l0,0
		c-2.311-1.754-5.192-2.794-8.316-2.794c-3.125,0-6.006,1.041-8.316,2.794v0c-0.111,0.058-0.209,0.135-0.292,0.228l0,0l-0.008,0.009
		l-0.003,0.004l-0.001,0.001c-0.01,0.012-0.021,0.024-0.03,0.037l0,0l-0.002,0.002L10.389,7.95l0,0l0,0.001l-0.014,0.019l0,0.001
		l-0.013,0.018L10.36,7.991l-0.001,0.001l-0.01,0.016l-0.002,0.004l0,0.001c-0.009,0.013-0.017,0.026-0.025,0.04L10.32,8.055
		l-0.012,0.021v0l-0.001,0.001l-0.011,0.021l0,0c-0.007,0.014-0.014,0.028-0.021,0.042l-0.001,0.003l-0.001,0.003l-0.006,0.015
		l-0.002,0.005l0,0.001l-0.008,0.021l0,0.002l-0.002,0.004l-0.006,0.018l-0.001,0.002l0,0.002l-0.008,0.021v0.001l0,0
		c-0.002,0.007-0.005,0.015-0.007,0.022v0.001l0,0c-0.007,0.024-0.014,0.048-0.02,0.073l0,0.002c-0.004,0.016-0.007,0.033-0.01,0.05
		l0,0v0.001l-0.004,0.023l0,0.001l-0.003,0.023l0,0.002v0.002l-0.002,0.02l0,0.004v0.001c-0.002,0.017-0.003,0.033-0.004,0.049
		v0.002l0,0.004l0,0.022v0.001v0.002l0,0.025l0,0.024v0.002l0,0.022v0.002l0.001,0.012l0.001,0.014l0,0.008l0.001,0.017l0.001,0.01
		l0.002,0.015l0.001,0.011l0.002,0.017l0.001,0.007l0.002,0.017l0.001,0.008l0.004,0.02l0.001,0.004l0.005,0.024v0l0.006,0.024
		v0.001l0,0.001l0.006,0.022l0,0.001l0.006,0.021l0.001,0.003l0.002,0.008l0.004,0.014l0.003,0.01l0.004,0.013l0.005,0.012
		l0.003,0.009l0.005,0.013l0.004,0.01l0.005,0.013l0.004,0.009l0.005,0.012l0.007,0.015l0.002,0.006l0.009,0.017l0.002,0.005
		l0.009,0.016l0.002,0.005l0.001,0.001l0.011,0.02v0l0.002,0.003l0.011,0.019l0.011,0.017l0,0l0.008,0.012l0.006,0.009l0.006,0.009
		l0.008,0.011l0.005,0.008l0.008,0.012l0.007,0.009l0.008,0.01l0.007,0.01l0.007,0.009l0.007,0.009l0.009,0.011l0.006,0.007
		l0.011,0.013l0.004,0.004l0.001,0.002l0.006,0.006l0.009,0.01l0.016,0.017l0.001,0.001l0.015,0.015l0,0.001l0.01,0.009l0.008,0.007
		l0.009,0.008l0.008,0.007l0.008,0.007l0.012,0.01l0.006,0.005l0.013,0.01l0.008,0.006L10.594,9.4l0.01,0.007l0.012,0.009
		l0.007,0.004l0.013,0.009l0.006,0.004l0.002,0.002l0.007,0.005l0.012,0.008l0.019,0.012l0.001,0l0.019,0.011l0.002,0.001
		l0.017,0.01l0.002,0.001l0.01,0.005l0.012,0.006L10.754,9.5l0.013,0.006l0.009,0.004l0.012,0.005l0.012,0.005l0.009,0.004
		l0.011,0.005l0.014,0.005l0.009,0.003l0.015,0.006l0.008,0.003l0.015,0.005l0.007,0.002l0.002,0l0.022,0.007l0,0l0.022,0.007
		l0.002,0l0.021,0.005l0.002,0l0.009,0.002l0.017,0.004l0.005,0.001l0.019,0.004l0.009,0.002l0.013,0.002l0.013,0.002l0.012,0.002
		L11.069,9.6l0.005,0l0.013,0.002h0l0.002,0l0,0h0.002l0.021,0.002l0.002,0h0.001h0.001l0.023,0.002l0.002,0h0h0.002l0.019,0.001
		h0.002h0.002h0h0.002l0.002,0l0.021,0h0.001h0.001l0.026,0l0.027,0h0l0.022,0l0.007,0l0.023-0.001l0.001,0l0.024-0.002h0.001h0.001
		l0.021-0.003h0.003l0.002,0h0L11.38,9.6l0,0h0.002l0.023-0.004h0l0.003,0c0.023-0.004,0.046-0.009,0.068-0.015l0.004-0.001
		l0.004-0.001l0.017-0.005l0.004-0.001l0.001,0l0.019-0.005l0.004-0.001h0l0.021-0.007l0.003-0.001l0.005-0.001l0.008-0.003
		l0.008-0.003l0.003-0.001l0.001-0.001l0.02-0.007l0.002-0.001l0.006-0.002l0.014-0.005l0.002-0.001l0.001,0l0.006-0.003
		l0.013-0.006l0.008-0.003l0.018-0.008l0.001,0l0,0l0.021-0.01l0.001,0l0.001-0.001l0.019-0.01l0.001-0.001h0l0.001-0.001
		l0.018-0.01l0.002-0.001l0,0l0.002-0.001L11.754,9.465L11.754,9.465z"/>
</g>
</svg>
